<?xml version="1.0" encoding="utf-8"?>
<!-- Generator: Adobe Illustrator 25.0.1, SVG Export Plug-In . SVG Version: 6.00 Build 0)  -->
<svg version="1.1" id="レイヤー_2" xmlns="http://www.w3.org/2000/svg" xmlns:xlink="http://www.w3.org/1999/xlink" x="0px"
	 y="0px" viewBox="0 0 746.09 317.8" style="enable-background:new 0 0 746.09 317.8;" xml:space="preserve">
<style type="text/css">
	.st0{fill:none;stroke:#000000;stroke-width:10;stroke-miterlimit:10;}
</style>
<path class="st0" d="M95.4,140.24c0,0,17.95-6.41,11.54-12.82c-6.41-6.41-8.97-10.26-33.33,0c-24.36,10.26-52.56,14.1-47.44,16.67
	s51.28,3.85,62.82,19.23s11.54,28.21-10.26,37.18c-21.79,8.97-26.92,12.82-41.03,7.69s-19.23-16.67-11.54-17.95
	c7.69-1.28,12.82-1.28,12.82-1.28l96.15-32.05c0,0-15.38,23.08-14.1,29.49c1.28,6.41,5.13,10.26,16.67,2.56
	c11.54-7.69,30.77-38.46,30.77-38.46s-20.51,37.18-11.54,34.62c8.97-2.56,23.08-16.67,23.08-16.67l26.92-23.08
	c0,0,11.54-17.95,19.23-10.26s11.54,26.92,5.13,30.77c-6.41,3.85-14.1,12.82-19.23,6.41c-5.13-6.41-6.01-2.64-6.01-8.21
	s0-12.27,0-12.27S173.7,239.4,167,239.95s-7.81-5.02-2.23-21.76s15.06-32.92,19.53-41.29c4.46-8.37,15.62-20.09,15.62-20.09
	s16.74,17.85,40.73,0s50.77-31.8,50.77-31.8s15.06-7.81,12.83,7.25c-2.23,15.06-3.91,35.15-14.51,29.01s-13.95-16.74-13.95-16.74
	l6.7-9.48c0,0-23.99,14.51-35.71,49.66c-11.72,35.15-17.3,60.81-5.02,44.08s32.36-73.65,32.36-73.65s27.34,1.67,42.4-12.27
	c15.06-13.95,21.76-17.3,21.76-17.3l8.93-2.79c0,0-20.09,37.38-3.91,30.69c16.18-6.7,15.62-9.48,20.09-19.53
	c4.46-10.04,5.58-21.2,0-21.2c-5.58,0-9.48,4.46-9.48,4.46s-11.72,13.39-0.56,13.39c11.16,0,23.43-8.93,23.43-8.93
	s5.58,24.55,16.74,7.25s12.83-20.64,12.83-20.64l6.14,16.18c0,0-17.85,13.39-6.7,13.39s7.81,4.46,19.53-5.02
	s46.31-64.72,46.31-64.72s-28.45,44.63-23.99,56.91c4.46,12.27-5.02,23.99,15.62,11.16c20.64-12.83,27.34-17.3,27.34-17.3
	l-59.14-17.85l78.11-18.97l47.98,1.12c0,0-17.85,30.13-14.51,34.59c3.35,4.46,6.14,8.93,17.3,0.56
	c11.16-8.37,30.69-41.29,30.69-41.29s-20.09,35.71-13.95,37.38c6.14,1.67,26.22-16.74,26.22-16.74l3.83-2.88l34.67-26.13
	c0,0-7.25,22.87-14.51,32.92s-7.81,6.14-12.27,2.23c-4.46-3.91-1.12-7.25-1.12-7.25s12.83,10.04,29.57,1.12
	c16.74-8.93,25.11-15.62,25.11-15.62l46.31-60.26L684.2,78.16l-1.67,13.95l-7.25,8.93"/>
</svg>
