<?xml version="1.0" encoding="utf-8"?>
<!-- Generator: Adobe Illustrator 25.0.1, SVG Export Plug-In . SVG Version: 6.00 Build 0)  -->
<svg version="1.1" xmlns="http://www.w3.org/2000/svg" xmlns:xlink="http://www.w3.org/1999/xlink" x="0px" y="0px"
	 viewBox="0 0 746.09 317.8" style="enable-background:new 0 0 746.09 317.8;" xml:space="preserve">
<style type="text/css">
	.st0{fill:#2096D5;}
</style>
<g id="レイヤー_1">
	<g>
		<path class="st0" d="M94.95,194.06c-0.46-0.7-1.71,1.74-2.34,1.96c-0.34,1.29-2.44,1.42-2.77,2.7
			c-9.01,8.01-27.04,13.53-41.39,11.85c-3.66-0.49-7.02-1.93-10.4-1.46c-2.16-1.53-4.93-2.06-7.43-2.98
			c-1.22-1.24-2.49-2.14-3.77-3.15c-1.8-2.04-2.77-5.11-3.11-9.07c1.37-2.46,3.89-4.01,6.54-5.47c1.45,0.65,4.46-0.65,5.93,0.1
			c1.86-0.21,4.01-0.68,4.47,1.36c-0.01,2.57-2.27,1.73-3.94,1.79c-1.79-0.03-3.47-0.75-4.96-0.27c-1.81-0.14-0.54,2.1-1.71,2.41
			c-0.39,0.96-1.44,1.36-1.08,2.86c1.63,4.97,6.6,5.35,10.3,7.39c3.14-0.54,5.03,0.71,7.72,0.8c1.21,0.57,2.39,0.26,3.76,0.47
			c0.11-0.02,0.29,0.4,0.62,0.34c2.04,0.21,5.91,0,9.08-0.43c0.76-0.13,1.75-0.19,2.6-0.44c1.9-0.66,5.1-0.87,8.78-1.5
			c2.31-0.84,3.74-2.31,6.57-2.68c3.93-3.12,8.22-6.09,11.76-9.59c1.06-1.63,1.87-3.44,3.42-4.82c-0.3-1.73,0.3-2.84,0.89-3.95
			c0.17-4.27-0.97-8.32-2.47-11.85c-1.69-1.39-2.8-3.32-4.57-4.58c-1.13-2.04-3.53-2.41-4.57-4.58c-3.02-0.71-5.4-2.21-7.61-4.06
			c-1.28,0.33-2.48,0.53-3.24-0.01c-1.18-1.03-2.83-1.53-3.75-3.04l-3.58,0.61c-1.6-1.51-4.35-1.27-5.83-2.8
			c-1.84,0.98-3.02-0.04-4.41-0.36c-2.53-0.46-4.4-0.92-7.17-1.46c-1.14-0.14-2.59-0.12-3.85-0.35c-0.34-0.05-1.36-0.77-1.7-0.83
			c-1.5-0.3-3.83-0.24-6.01-0.54c-0.23-0.07-1.47-0.75-1.7-0.83c-1.36-0.1-1.84,0.31-3.24-0.01c-0.56-0.02-1.3-0.45-2.23-0.62
			c-0.86-2.42-0.19-3.76,0.09-5.37c5.73-1.76,9.66-4.88,15.53-6.44c3.59-3.18,11.45-3.51,15.55-6.33c4.82-1.16,9.52-2.4,13.19-4.48
			c2.69,0.1,5.35-1.36,8.28-1.86c1.07-0.29,1.92,0.12,3.11-0.08c2.3-0.28,4.57-1.34,6.76-1.6c1.19-0.2,3.07-0.3,4.74-0.36
			c1.34,0,3.2-0.21,4.21-0.16c0.34,0.05,1.03,0.83,1.27,0.9c0.45,0.03,1.16-0.42,1.52-0.26c1.18,0.36,2.9,2.63,4.39,3.49
			c0.06,1.66,1.29,1.68,1.17,3.59c0.2,1.19-0.72,1.68-0.01,3.24c-1.32,0.11-1.17,1.65-1.71,2.41c-0.38,0.4-1.16,0.42-1.53,0.82
			c-0.29,0.27-0.43,0.74-0.81,1.14c-1.31,1.45-2.67,2.69-4.13,3.94c-0.63,0.89-3.52,1.6-3.78,0.09c-0.62-1.68,0.55-1.99,1.71-2.41
			c0.65-0.78,0.41-2.19,1.71-2.41c0.25-1.16,1.17-1.65,2.33-2.07c-0.49-1.59,1.19-1.54,1.18-2.88c-1.9-3.92-7.41-2.87-10.92-4.5
			c-1.25-0.12-0.59,1.11-1.46,1.25c-0.22-0.63-1.38-0.21-2.13-0.08c-6.89,0.17-15.52,3.2-22.62,5.42
			c-5.82,1.88-11.27,3.93-16.8,5.54c-3.48,1.82-6.84,3.73-10.85,5.08c0.22,1.3,1.86,0.46,2.86,1.07c0.51,0.36,3.46,0.64,4.94,0.83
			c3.5,1.52,7.35,1.87,11.2,2.89c3.49,0.86,7.19,2.23,11.11,2.35c0.82,1.53,2.83,1.53,4.13,1.97c0.24,0.07,0.49,0.92,0.62,1.01
			c0.47,0.14,1.16-0.42,1.63-0.28c0.23,0.07,0.49,0.92,0.71,0.88c2.35,0.71,5.74,2.26,8.15,3.97c1.79,0.7,2.97,2.39,5.2,2.35
			c0.57,3.36,4.01,2.55,4.31,6.3c0.31,0.51,0.82,0.87,1.68,0.72c0.15,0.87,0.67,1.34,1.36,1.44c0.74,3.67,2.7,7.35,2.92,11.22
			c0.15,2.21-0.4,4.87-0.9,7.18C98.98,189.58,96.97,191.49,94.95,194.06z"/>
		<path class="st0" d="M178.87,166.6c0.2-0.15,2.64,4.35,2.64,4.35s-6.06,5.72-6.4,5.67c-0.34-0.05-6.25,6.53-11.16,8.49
			c-1.26,0.44-2.87,0.82-4.06,1.7c-2.39,0.41-5.06-0.25-7.45,0.15c-1.76-0.48-2.7-2.11-3.85-3.58c-2.69,1.24-4.6,3.13-6.02,5.27
			c-3.76,1.53-7.54,4.86-11.75,6.35c-0.85,0.26-1.86,0.21-2.6,0.44c-1.39,0.35-3.59,1.17-5.84,0.44c-2.39-0.26-3-3.17-4.57-4.58
			c0.32-2.06,0.13-4.49,0.56-6.57c1.02-1.85,7.78-17.84,9.44-19.24c-0.49-1.59,4.26-7.09,4.26-8.42c0.41-0.85,0.05-2.35,1.71-2.41
			c2.29-0.95,3.07,0.37,4.4,0.92c1.28,4.91-1.6,6.97-3.71,9.67c0.01,2.01-1.69,3.86-2.69,5.15c-0.75,1.47-4.36,9.78-5.77,10.69
			c-0.1,3.36-3.56,4.62-1.9,9.14c5.63,0.94,9.25-3.36,13.54-4.99c2.11-2.03,4.42-3.54,6.67-5.38c1.93-1.78,3.55-4.06,6-5.38
			c1.38-4.36,6.7-11.74,9.27-15.64c0.79-1.25,1.07-2.86,2.61-3.68c-0.26-1.52,0.88-2.05,1.62-2.95c0.99-0.73,1.71-1.74,2.16-3.05
			c0.49-0.42,2.05-2.36,3.07-0.97c2.21-0.15,2.42,3.72,1.86,5.04c-0.18,0.25-0.45-0.03-0.47,0.53c0.15,0.87-0.23,1.27-0.61,2.34
			c-2.1,3.37-4.06,6.94-6.31,10.11s-8.25,9.89-8.36,14.48c2.03,0.77,4.23,0.62,5.82,0.12c4.82-1.83,9.94-6.49,13.17-9.83
			C175.55,169.4,178.58,166.87,178.87,166.6z"/>
		<path class="st0" d="M263.67,138.43c0.22-0.04-5.18,8.25-5.29,8.27c-1.41,0.91-17.97,12.43-18.07,13.12
			c-1.79,0.64-3.14,1.87-4.22,3.4c-2.58,1.89-5.92,4.58-8.71,7.17c-1.05,0.4-1.95,1-2.85,1.6c0,1.34-2.85,0.93-2.98,2.18l-3.69,0.63
			c-1.95,0.33-3.9,0.67-5.84,0.44c-3.05-2.16-5.07-5.5-7.34-8.35c-2.12,3.26-8,17.21-10.26,18.38c0.71,1.55-0.73,2.25-0.37,3.74
			c-2.65,2.13-7.92,16.41-9.91,20.44c-0.61,0.33-1.04,1.07-0.81,1.81c-1.04,2.41-2.7,4.48-3.61,6.98
			c-2.1,5.38-10.23,26.4-16.3,27.44l-0.43,0.07c-2.07-1.66-2.14-6.67-2.67-9.14c0.5-2.99,1.35-5.81,1.29-8.81
			c1.06-0.96-0.3-3.07,0.89-3.95c-0.2-1.19,0.75-2.14,0.55-3.33l-0.27-0.96c1.35-0.57,0.79-2.59,2.16-3.05
			c-0.48-1.48,1.99-9.27,3.18-10.14c-1.87-3.14,10.89-23.84,11.69-28.33c0.88-0.71,7.79-10.59,7.85-10.93
			c1.46-2.59,11.95-16.32,14.19-16.92c0.48-3.09,17.77-17.53,21.56-18.18c3.47-0.59,5.5,1.52,8.08,3.53
			c-0.21,0.71,0.37,1.5,0.89,1.97l0.07,0.43c0.22,1.3-0.12,2.59,0.1,3.89l0.71,0.88l0.19,1.08c0.67,3.9,0.55,7.83,0.42,11.64
			c0.25,0.18,0.6,0.23,0.81,0.2c2.39-0.41,22.39-14.64,25.37-16.82L263.67,138.43z M199.43,157.63c-0.94,1.05-1.28,2.34-2.79,2.6
			c-0.23,2.61-2.83,3.72-3.78,6c-2.07,1.58-2.37,4.42-4.32,6.09c-1.39,0.35-0.61,2.33-1.62,2.95c-0.09,1.46-1.93,1.78-1.63,3.51
			c-1.81,0.53-2.37,5.09-4.32,6.09c-0.07,0.24-5.71,12.35-6.21,13.33c-0.3,2.84-2.82,4.39-2.52,7.46c-1.66,2.07-1.41,4.82-3.07,6.88
			l0.44,2.6c-1.44,1.36-1.4,3.59-2.35,5.2c0.64,2.46-0.18,4.16-0.56,6.57c0.82,1.53-0.39,1.63-0.53,2.77
			c-0.2,0.15-0.51,0.31-0.47,0.53c0.13,0.76,0.98,1.17,1.09,1.82c0.06,0.33-0.02,0.56-0.09,0.8c1.77-0.75,2.12-2.59,2.52-4.22
			c1.35-1.23,2.2-2.83,2.33-4.64c2.02-1.91,1.92-5.12,3.7-7.1l-0.17-0.98c0.52-1.54,1.6-3.73,2.22-5.29l1.01-0.62
			c0.32-0.72-0.71-2.22,0.72-2.35c1.4-3.59,3.63-6.87,5.13-10.47c-0.27-0.96,0.35-1.85,1.17-2.32c0.48-1.09,0.06-2.24,0.55-3.33
			l1.08-0.19l-0.18-1.08c3.2-5.46,4.91-13.11,9.27-17.65c-0.24-2.08,1.69-3.19,1.81-5.11c0.99-2.06,4.06-8.28,3.69-10.45
			c-0.06-0.33-0.18-0.42-0.71-0.21C200.48,157.23,199.97,157.54,199.43,157.63z M221.17,137.86c0,0.67-0.59,1.11-0.72,1.69
			c-2.66,0.12-2.88,2.72-5.4,3.04c-0.7,1.79-1.85,3.55-3.29,4.91c0.03,2.78-2.23,8.53-3.32,11.28c-0.68,1.23-1.28,2.34-1.23,3.89
			c2.77,1.2,4.27,5.41,8.06,4.76c2.82-0.48,5.65-2.86,8.9-3.41c-0.31-1.17,1.55-2.05,2.36-2.52c2.46-4.55,2.85-12.09,2-17.08
			c-0.39-2.28-1.1-4.5-2.43-6.39c-1.5-0.3-2.88-0.51-4.4-0.26L221.17,137.86z"/>
		<path class="st0" d="M336.65,125.99c0.22-0.04-5.18,8.25-5.29,8.27c-1.41,0.91-17.97,12.43-18.07,13.12
			c-1.79,0.64-3.14,1.87-4.22,3.4c-2.58,1.89-5.92,4.58-8.71,7.17c-1.05,0.4-1.95,1-2.85,1.6c0,1.34-2.85,0.93-2.98,2.18l-3.69,0.63
			c-1.95,0.33-3.9,0.67-5.84,0.44c-3.05-2.16-5.06-5.5-7.34-8.35c-2.12,3.26-8,17.21-10.26,18.38c0.71,1.55-0.73,2.24-0.37,3.74
			c-2.65,2.12-7.92,16.41-9.91,20.43c-0.61,0.33-1.05,1.07-0.81,1.81c-1.04,2.41-2.7,4.48-3.61,6.97
			c-2.1,5.38-10.23,26.4-16.3,27.44l-0.43,0.07c-2.07-1.66-2.14-6.67-2.67-9.14c0.5-2.99,1.35-5.81,1.29-8.81
			c1.06-0.96-0.3-3.07,0.89-3.95c-0.2-1.19,0.75-2.14,0.55-3.33l-0.27-0.96c1.35-0.57,0.79-2.59,2.16-3.05
			c-0.48-1.48,1.99-9.27,3.18-10.14c-1.87-3.14,10.89-23.84,11.69-28.33c0.88-0.71,7.79-10.59,7.85-10.93
			c1.46-2.59,11.95-16.32,14.19-16.92c0.48-3.09,17.77-17.53,21.56-18.18c3.47-0.59,5.5,1.52,8.08,3.53
			c-0.21,0.71,0.37,1.5,0.89,1.97l0.07,0.43c0.22,1.3-0.12,2.59,0.1,3.89l0.71,0.88l0.19,1.08c0.67,3.9,0.55,7.83,0.42,11.64
			c0.25,0.18,0.6,0.23,0.81,0.2c2.39-0.41,22.39-14.64,25.37-16.82L336.65,125.99z M272.41,145.19c-0.94,1.05-1.28,2.34-2.79,2.6
			c-0.23,2.6-2.83,3.72-3.78,6c-2.07,1.58-2.37,4.42-4.32,6.09c-1.39,0.35-0.61,2.33-1.62,2.95c-0.09,1.46-1.93,1.78-1.63,3.51
			c-1.81,0.53-2.37,5.09-4.32,6.09c-0.07,0.24-5.71,12.35-6.21,13.33c-0.3,2.84-2.82,4.39-2.52,7.46c-1.66,2.07-1.41,4.82-3.07,6.88
			l0.44,2.6c-1.44,1.36-1.4,3.58-2.35,5.2c0.64,2.46-0.18,4.16-0.56,6.57c0.82,1.53-0.39,1.63-0.53,2.77
			c-0.2,0.14-0.51,0.31-0.47,0.53c0.13,0.76,0.98,1.17,1.09,1.82c0.06,0.33-0.02,0.56-0.09,0.8c1.77-0.75,2.12-2.59,2.52-4.22
			c1.35-1.23,2.2-2.83,2.33-4.64c2.02-1.91,1.92-5.12,3.7-7.1l-0.17-0.98c0.52-1.54,1.6-3.73,2.22-5.29l1.01-0.62
			c0.32-0.72-0.71-2.22,0.72-2.35c1.4-3.59,3.63-6.87,5.13-10.47c-0.27-0.96,0.36-1.85,1.17-2.32c0.48-1.09,0.06-2.24,0.55-3.33
			l1.08-0.18l-0.18-1.08c3.2-5.46,4.91-13.11,9.27-17.65c-0.24-2.08,1.69-3.19,1.81-5.11c0.99-2.07,4.06-8.28,3.69-10.45
			c-0.06-0.33-0.18-0.42-0.71-0.21C273.46,144.79,272.95,145.1,272.41,145.19z M294.15,125.42c0,0.67-0.59,1.11-0.72,1.68
			c-2.66,0.12-2.88,2.72-5.4,3.04c-0.7,1.79-1.85,3.55-3.29,4.91c0.03,2.78-2.23,8.53-3.32,11.28c-0.68,1.23-1.28,2.34-1.23,3.89
			c2.77,1.2,4.27,5.41,8.06,4.76c2.82-0.48,5.65-2.86,8.9-3.41c-0.31-1.17,1.55-2.05,2.36-2.52c2.46-4.55,2.85-12.09,2-17.08
			c-0.39-2.28-1.1-4.5-2.43-6.39c-1.5-0.3-2.88-0.51-4.4-0.26L294.15,125.42z"/>
		<path class="st0" d="M339.19,128.46c0.4-0.29,1.17-1.65,2.25-2.5c3.07-0.97,3.98-3.47,6.66-4.82c1.51-1.6,2.16-3.71,3.42-5.49
			c2.85-0.93,4.42-2.87,7.89-3.46c1.96,1.01,5.88,1.79,6.29,4.84c1.18,1.7,1.64,3.74,2.26,5.42c0.15,0.2,0.73,0.32,1.56-0.04
			c1.46-0.58,0.13,0.09,1.55-0.71c1.71-1.07,4.39-1.08,4.41-0.97c0.26,0.85-1.36,4.47-1.83,5c-0.2,0.15-0.61,0.33-1.43,0.8
			c-1.62,0.95-0.63,0.22-2.15,1.15c-1.62,0.95-1.8,1.2-1.79,1.31c-0.58,4.45-3.07,6.88-4.7,10.4c-0.54,0.76-2.99,2.74-2.5,3.66
			c-1.26,0.44-0.66,1.34-1.73,2.97c-3.17,3.67-6.85,6.97-11.14,9.93c-3.56,1.39-8.85,1.73-11.59,1.42c-1.8-2.04-2.16-6.1-2.77-9.68
			c0.34-1.29,0.53-2.77,1-3.96c0.14-0.47,1.19-0.87,1.33-1.34c0.32-0.72-0.02-1.45,0.19-2.15c0.91-2.5,0.92-5.07,2.47-7.12
			C339.09,131.82,339.23,130.02,339.19,128.46z M346.01,133.77c-1.28,0.33-1.3,1.56-1.71,2.41c-1.71,3.08-2.65,6.7-4.32,9.33
			c0.39,2.28-1,3.29-0.11,5.93l5.31-0.91c1.07-0.29,4.49-3.11,4.76-3.49c0.36-0.51,0.4-0.29,0.99-0.73
			c1.46-1.25,2.12-3.26,4.13-3.94c0.77-1.36,1.53-2.83,2.53-4.11c0.88-1.38,1.78-2.65,3.04-3.75c0.54-1.43,1.41-1.58,1.11-3.31
			c-1.55,1.38-4.98,2.19-7.13,2.67c-0.87-0.52-2.35-0.05-3.76,0.19c-1.56-0.63-2.76-1.76-4.56-1.9
			C346.29,132.83,345.64,132.94,346.01,133.77z M357.24,121.14c-0.43,1.41-1.87,2.1-3.34,2.69c-0.14,1.14-2.48,3.1-0.89,3.95
			c-0.04-0.89,0.76-0.13,0.71,0.88c3.18-0.32,7.41-1.71,9.18-3.13c-0.57-2.02-0.42-5.06-1.61-6.2c-0.65,0.11-3.04-0.15-3.76,0.19
			C357.53,120.2,356.88,120.31,357.24,121.14z"/>
		<path class="st0" d="M436.63,121.45c-0.02-0.11,2.11,3.88,2.11,3.88s-3.11,4.66-3.26,4.46c-5.03,4.54-9.55,10.11-16.54,12.97
			c-3.41,0.92-7.41,1.04-9.96,1.14c-1.1,0.08-1.41,0.24-2.69-0.1c-0.24-0.07-0.07-0.43-0.63-0.45c-1.41,0.24-2.5-1.58-3.68-2.61
			c-0.62-2.35,0.13-3.82,0.12-5.82c2.34-3.97,3.32-8.04,6.03-11.74c-0.61-2.24-1.57-5.31-2.79-6.55
			c-3.02,1.29-9.82,15.73-12.71,17.12c0,0-4.38-2.15-4.26-2.06c1.39-1.69,3.67-5.98,4.89-7.31c1.13-1.87,5.21-10.04,6.99-11.35
			c-0.09-1.21,3.01-3.97,3.74-4.88c0.43-0.74-0.35-2.73,2.16-2.38c2.6,0.23,2.85,3.64,3.77,6.39c1.09,1.15,1.75,3.05,2.86,4.31
			c-0.01,2.57,2.24,3.3,2.61,5.47c-0.98,0.17-0.5,1.65-0.73,2.25c-0.32,0.72-1.01,1.29-1.26,1.78c-0.67,3.24-2.32,4.75-3.5,7.63
			c-0.28,1.61-2.34,1.96-1.36,4.47c2.26,0.84,5.55,0.5,8.97-0.41c5.96-1.69,10.66-7.51,14.26-11.25
			C433.17,124.72,436.65,121.56,436.63,121.45z"/>
		<path class="st0" d="M487.76,123.57c-2.4,1.64-3.35,3.25-4.94,4.41c-0.99,0.73-2.56,2.67-4.2,3.5c-0.33,0.06-1.82,1.09-2.11,1.36
			c-0.61,0.33-0.65,0.78-1.89,1.33c-0.61,0.33-2.46,1.31-3.39,1.69c-1.55,0.71,0.05-0.34-2.13,0.59c-1.05,0.4-1.99,0.79-2.96,1.62
			c-2.44-0.59-6.25,0.62-9.42,1.05c-0.83-0.97-2.48-0.8-3.96-1c-1.67-1.95-4.82-3.42-5.99-7.01c-0.9-2.64-0.6-5.48-0.32-8.43
			c0.84-2.93,0.79-7.83,2.06-9.5c1.88-4.67,2.75-10.06,5.16-14.27c-0.91-0.74-2.73-0.32-4.32,0.18c-1.16,0.42-3.67,1.41-6,2.14
			c-3.31,0.9-7.47,3.28-9.17-0.11c-0.57-2.02,2.53-1.55,3.34-2.69c0.83-1.03,3.29-1.01,3.86-2.22c5.37-1.25,10.23-2.86,15.34-4.29
			c0.85-0.26,1.46-1.25,1.8-1.87c0.25-0.49,0.03-1.12,0.28-1.61c0.59-1.11,2.57-3.23,3.4-4.93c1.72-2.97,2.85-6.18,4.32-9.33
			c1.62-1.62,0.85-4.83,4.5-5.01c2.17-0.37,1.06,3.61,2.42,4.39c-1.73,5.54-5.77,9.35-6.49,15.61c0.4,1.05,2.64-0.23,3.78-0.09
			c11.85-3.13,24.56-5.86,36.43-8.88c1.41,0.43,3.4,0.98,2.38,2.83c-2.67,0.68-4.89,1.39-4.8,1.27c-3.05,0.41-4.84,1.72-8.26,1.96
			c-2.06,1.69-4.26,1.17-7.01,2.76c-2.04,0.46-3.9,0.67-5.28,0.45c-3.3,2.24-3.81,0.54-7.21,2.23c-1.44,0.69-1.44,0.69-3.04,0.52
			c-0.9,0.6-1.8,1.2-2.96,1.62c-1.26,0.44-4.27-1.5-5.75,0.98c0.29,1.07-1.81,0.53-2.51,0.99c-0.68,3.24-3.24,5.24-3.88,8.69
			c-2.29,2.29-1.54,5.39-4.06,7.61c0.35,1.39-1.06,2.3-1.52,3.5c-0.57,1.21-0.28,2.95-1.45,3.93c0.05,4.23-1.11,7.89,1.42,11.59
			c1.34,0.66,2.25,1.4,3.5,1.52c0.45,0.03,0.4,0.38,0.53,0.47c3.75,1.04,8.24-1.4,11.94-2.59c1.55-0.71,4.08-1.59,5.56-3.4
			c0.09-0.13,2.67-2.02,2.78-2.04c0.79-0.58,1.31-1.45,2.22-2.05c0.81-0.47,2.22-0.71,3.05-1.08c0.34-1.29,2.35-1.29,3.83-1.77
			C488.48,121.21,486.58,122.54,487.76,123.57z"/>
		<path class="st0" d="M602.09,94.49c0.2-0.15,2.64,4.35,2.64,4.35s-6.06,5.72-6.4,5.67s-6.25,6.53-11.16,8.49
			c-1.26,0.44-2.87,0.82-4.06,1.7c-2.39,0.41-5.07-0.25-7.45,0.15c-1.76-0.48-2.7-2.11-3.85-3.58c-2.69,1.24-4.6,3.13-6.02,5.27
			c-3.76,1.53-7.54,4.86-11.75,6.35c-0.85,0.26-1.86,0.21-2.6,0.44c-1.39,0.35-3.59,1.17-5.84,0.44c-2.39-0.26-2.99-3.17-4.57-4.58
			c0.32-2.06,0.13-4.49,0.56-6.57c1.02-1.85,7.78-17.84,9.44-19.24c-0.49-1.59,4.26-7.09,4.26-8.42c0.41-0.85,0.05-2.35,1.71-2.41
			c2.29-0.95,3.08,0.37,4.4,0.92c1.28,4.91-1.6,6.97-3.71,9.67c0.01,2.01-1.69,3.86-2.69,5.15c-0.75,1.47-4.36,9.78-5.77,10.69
			c-0.1,3.36-3.56,4.62-1.9,9.14c5.63,0.94,9.25-3.36,13.54-4.99c2.11-2.03,4.42-3.54,6.67-5.38c1.93-1.78,3.55-4.06,6-5.37
			c1.38-4.36,6.7-11.74,9.28-15.64c0.79-1.25,1.07-2.86,2.61-3.68c-0.26-1.52,0.88-2.05,1.62-2.95c0.99-0.73,1.71-1.74,2.16-3.05
			c0.49-0.42,2.05-2.36,3.07-0.97c2.21-0.15,2.42,3.72,1.86,5.04c-0.18,0.25-0.45-0.04-0.47,0.53c0.15,0.87-0.23,1.27-0.61,2.34
			c-2.1,3.37-4.06,6.94-6.31,10.11c-2.25,3.17-8.25,9.89-8.36,14.48c2.03,0.77,4.23,0.62,5.82,0.12c4.82-1.83,9.94-6.49,13.17-9.83
			C598.77,97.29,601.8,94.76,602.09,94.49z"/>
		<path class="st0" d="M603.3,105.55c-0.35-2.06-0.87-5.1-1.08-5.06c4.13-1.93,8.33-8.11,11.68-10.69
			c4.05-3.7,9.29-10.29,13.75-13.61c2.34-1.96,4.31-4.19,6.54-6.14c1.95-1.67,3.78-3.99,6.66-4.82c0.69,0.78,1.6,1.51,2.5,2.25
			c0.86,1.75-0.29,3.51-0.72,4.92c-0.73,2.25-1.72,4.31-2.69,6.48c-0.07,0.24,0.37,0.83,0.17,0.98c-0.83,1.03-4.17,10.87-4.37,13.02
			c-1.19,1.54-2.74,2.92-2.78,5.27c1.45,1.31,2.91-1.28,5.21-0.89c4.37-1.86,9.03-3.99,13.38-5.96c4.8-3.27,9.92-6.6,14.21-10.23
			c0.39,2.28,1.3,5.02,0.43,4.5c-1.12,0.64-2.43,2.76-3.44,3.38c-0.31,0.16-1.13,1.2-1.46,1.25c-0.61,0.33-0.94,0.38-1.43,0.8
			c-1.6,1.05-2.16,2.38-3.44,3.38c-0.49,0.42-1.01,0.62-1.53,0.82c-1.01,0.62-2.2,1.49-3.34,2.02c-1.14,0.53-1.41,0.91-2.96,1.62
			c-1.35,0.57-5,2.08-6.84,3.73c-5.75,1.65-11.63,5.77-18.24,6.23c-2.08,0.24-4.25-0.73-6.55-0.45c-1.65-1.17-3.43-2.43-5.83-2.8
			c-0.78-1.32-1.06-2.94-0.76-4.45c-1.7-0.16-1.5,1.04-2.44,1.42c-0.2,0.81-1.93,0.44-1.88,1.44
			C604.88,104.95,603.38,105.99,603.3,105.55z M626.76,96.53c1.39-1.69,5.21-8.7,5.1-11.36c1.32-0.78,1.12-4.54,2.33-5.31
			c-0.31-1.17-0.22-1.97,0.73-2.25c-0.22-0.63-0.44-1.26-1.27-0.9c0.02,0.78-0.72,1.02-0.72,1.68c-3.63,1.62-3.49,5.73-7.24,7.26
			c-2.11,2.7-9.28,10.4-12,12.76c2.97,1.73,5.08,4.27,9.54,2.95C625.17,100.27,626.23,98.63,626.76,96.53z"/>
		<path class="st0" d="M684.41,95.64c-1.63,0.28-1.5,1.71-3.39,1.69c-1.71,1.07-2.03,3.14-2.98,4.75l-2.6,0.44
			c-3.37-2.77-0.24-7.32,1.01-9.77C679.73,91.08,684.65,90.47,684.41,95.64z M716.87,24.83c-0.71,3.02-2.97,4.86-4.69,7.16
			c-0.15,2.37-2.08,3.48-2.26,5.74c-2.45,1.98-3.63,4.86-5.22,7.36c-0.79,1.25-1.71,2.41-2.5,3.66c-0.81,1.14-0.91,3.17-2.61,3.68
			c-0.93,3.73-3.43,6.72-5.33,9.95c-1.91,3.23-3.45,6.61-5.21,10.04c-1.19,0.87,0.95,2.96-0.01,3.24c-0.47,1.2-3.64,2.18-5.13,1.32
			c-1.55-2.53,0.02-3.8,0.67-5.92c0.83-1.7,1.4-3.59,1.71-5.65c1.16-0.42,0.81-1.81,1.69-2.52c1.3-0.22,0.43-2.08,1.07-2.86
			c3.78-4.66,5.68-10.56,9.2-15.4c4.58-7.14,8.54-14.73,13.39-21.59C714.58,21.87,715.54,23.61,716.87,24.83z"/>
	</g>
</g>
<g id="レイヤー_2">
</g>
</svg>
